<svg xmlns="http://www.w3.org/2000/svg" viewBox="0 0 134.65 141.7"><defs><style>.cls-1{fill:#163762;}.cls-2{fill:#004762;}.cls-3{fill:#025277;}</style></defs><g id="Camada_2" data-name="Camada 2"><g id="Camada_1-2" data-name="Camada 1"><path class="cls-1" d="M88.72,63.53h45.82c0,.5.08,1,.08,1.4,0,5.3.13,10.61-.09,15.9-.58,13.86-3.9,26.86-12.59,38.06A55.14,55.14,0,0,1,96.72,137c-10.37,3.8-21.14,4.87-32.11,4.65A85,85,0,0,1,44.38,139C25.63,134,12,123,4.76,104.71A69.46,69.46,0,0,1,.14,80.52C0,75.26.07,70,0,64.74c0-1,.29-1.3,1.3-1.3q22.08,0,44.15,0c.34,0,.67,0,1.13.08,0,.61.09,1.19.1,1.77.12,5.51.1,11,.39,16.52a29.12,29.12,0,0,0,3.47,12.76,17.15,17.15,0,0,0,12.62,8.88,22.38,22.38,0,0,0,14.59-1.83c5.27-2.7,8-7.37,9.44-12.91a52.26,52.26,0,0,0,1.53-13.47C88.71,71.4,88.72,67.55,88.72,63.53Z"/><path class="cls-2" d="M111.32,0A23.18,23.18,0,0,1,134.61,23.2c.12,12.72-10.26,23.43-22.77,23.48C98.53,46.74,88,36.53,87.94,23.53A23.27,23.27,0,0,1,111.32,0Z"/><path class="cls-3" d="M46.61,23.36A23.29,23.29,0,0,1,0,23.56,23.47,23.47,0,0,1,23.24,0C36.09,0,46.92,10.71,46.61,23.36Z"/></g></g></svg>