<?xml version="1.0" encoding="utf-8"?>
<!-- Generator: Adobe Illustrator 26.0.0, SVG Export Plug-In . SVG Version: 6.00 Build 0)  -->
<svg version="1.1" id="Camada_1" xmlns="http://www.w3.org/2000/svg" xmlns:xlink="http://www.w3.org/1999/xlink" x="0px" y="0px"
	 viewBox="0 0 861.8 131.6" style="enable-background:new 0 0 861.8 131.6;" xml:space="preserve">
<style type="text/css">
	.st0{fill:#FFFFFF;}
</style>
<g id="Camada_2_00000087413894218664865520000000591565026652317349_">
	<g id="Camada_1-2">
		<path class="st0" d="M153.2,125.5C135.3,84.8,117.6,44.1,99.8,3.4c-1.1-2.5-2.4-3.1-4.8-3.1c-11.9,0.1-23.7,0.2-35.6,0
			c-2.9,0-4,1.1-5,3.5C40.8,35,27.2,66.3,13.5,97.5C9.1,107.7,4.6,117.8,0,128.4c14.5,0,28.3,0,42.1,0.1c2.2,0,2.5-1.4,3-2.8
			c2.2-5.7,4.4-11.4,6.5-17.2c0.6-1.8,1.4-2.5,3.4-2.5c14.5,0.1,29,0.1,43.5,0c2.2,0,3,0.9,3.7,2.7c2.1,5.7,4.3,11.2,6.4,16.9
			c0.7,2,1.6,2.9,3.9,2.9c12.9-0.1,25.8-0.1,38.7,0C153.8,128.5,154.4,128.1,153.2,125.5z M87.2,75.1c-7,0-13.9,0-20.8,0
			c-1.3,0-1.9-0.3-1.3-1.8c3.9-10,7.7-20,11.8-30.4c4,10.4,7.8,20.3,11.7,30.2C89.1,74.7,88.9,75.2,87.2,75.1L87.2,75.1z"/>
		<path class="st0" d="M400.5,33.5c-1.4,1-2.9,0.4-4.4,0.5c-9.8,0.1-19.5,0.1-29.2,0c-2.7,0-3.5,0.7-3.4,3.4
			c0.1,29.1,0,58.3,0.1,87.4c0,3.1-0.8,3.8-3.8,3.8c-12-0.2-23.9-0.2-35.9,0c-2.8,0-3.7-0.6-3.7-3.6c0.1-29,0-58,0.2-87.1
			c0-3.2-0.9-4-4-4c-10.1,0.2-20.2,0-30.3,0.1c-2.4,0-3.5-0.4-3.4-3.2c0.2-9.2,0.2-18.3,0-27.5c0-2.5,0.8-3,3.2-3
			c37.3,0,74.5,0,111.8,0c1,0,2.1-0.5,2.9,0.6C401,11.8,401.1,22.6,400.5,33.5z"/>
		<path class="st0" d="M170.9,58.7c6.1,0,12.3,0.1,18.4,0c2.3-0.1,2.9,0.6,2.9,2.9c0,7-0.6,14.1,1.4,21.1
			c2.7,9.4,8.8,13.9,19.1,13.7c8.9-0.2,15.2-5.7,17.2-14.7c1.5-6.5,1.4-13.1,1.2-19.8c-0.1-2.3,0.3-3.2,3-3.2
			c12.3,0.2,24.6,0,36.9,0.1c1.1,0,2.7-0.7,2.7,1.5c0.1,12.3,0.2,24.6-4.4,36.4c-6.9,17.9-20.2,28.6-38.6,32.6
			c-15.6,3.4-31.3,3.4-46.6-2.2c-20.1-7.3-31-22.2-34.4-42.9c-1.3-7.6-0.8-15.3-1-22.9c-0.1-2,0.6-2.5,2.6-2.5
			C157.9,58.8,164.4,58.7,170.9,58.7z"/>
		<path class="st0" d="M760.3,0.9c-2-1.9-6-0.3-9.1-0.6c-2.7-0.3-3.3,0.8-3.3,3.3c0.1,11.6,0.1,23.2,0.1,34.8V50
			c-1.8-2.2-2.9-3.7-4.3-5.1c-11.8-12.4-26.4-15.4-42.6-12.4c-13.6,2.5-24.1,9.7-31,21.8c-5.7,9.9-7.2,20.6-6.2,31.8
			c3.2,37.8,43,52.7,70.3,37.5c5.7-3.1,10-7.7,14.3-13.8c0,3.9-0.1,6.7,0,9.6s-1.3,6.6,0.5,8.4c1.8,1.8,5.5,0.3,8.4,0.6
			s3.6-0.7,3.6-3.6c-0.1-38.3,0-76.6-0.1-114.9C760.9,6.9,762.3,2.8,760.3,0.9z M710.9,117.8c-20.6-0.8-34.3-16.3-34.2-37.8
			c0.2-22,15.1-37.2,36-37s35.5,15.8,35.4,38C748,101.4,734,118.6,710.9,117.8z"/>
		<path class="st0" d="M839.9,38.3c-16.1-9.8-33.2-9.6-49.4-0.2c-24.4,14.1-27.5,47.6-16,67.5c8.2,14.2,21,21.6,36.9,23.4
			c14,1.6,27.2-0.9,38.7-9.8c6.4-4.9,6.3-5,1.1-10.9c-0.6-0.7-1.3-1.4-1.8-2.1c-0.8-1-1.3-0.8-2.1,0.1c-10.1,10-22.3,12.9-36,10.9
			c-15.7-2.3-28.1-14.8-29.8-30c-0.3-2.6,0.6-2.8,2.7-2.8c12.4,0.1,24.8,0,37.2,0h37.3c1.7,0,3.1,0.2,3.2-2.3
			C862.1,63.6,856.1,48.1,839.9,38.3z M842.9,74.7h-61.6c0.6-16.9,13.8-30.7,30.7-32c17-1.5,31.2,8.1,36.1,24.9
			C850.1,74.7,850.1,74.7,842.9,74.7L842.9,74.7z"/>
		<path class="st0" d="M643.7,112.4c-8.2,11.2-19.3,16.5-32.4,17c-20.3,0.8-39.1-8.2-42.2-33c-0.4-3.1-0.6-6.2-0.6-9.4
			c0-17.3,0-34.6,0-51.9c0-2.2,0.4-3.2,2.8-3c2.4,0.2,4.9,0.2,7.3,0c2.5-0.2,3.1,0.6,3.1,3.1c-0.1,16.7,0,33.4-0.1,50.2
			c-0.1,4.1,0.3,8.1,1.2,12.1c2.6,10.7,9.2,17.5,20.2,19.4c12.6,2.2,24,0.1,32.8-10.1c5.1-6,7.2-13.2,7.3-20.9
			c0.2-16.7,0.2-33.4,0-50.2c0-3,0.8-3.9,3.7-3.5c3.1,0.4,7.2-1.3,9,0.7c1.5,1.8,0.5,5.7,0.5,8.7c0,27.8,0,55.5,0.1,83.2
			c0,2.9-0.7,3.9-3.6,3.6s-6.6,0.9-8.4-0.6s-0.5-5.4-0.6-8.3C643.6,117.2,643.7,114.8,643.7,112.4z"/>
		<path class="st0" d="M400.5,33.5c0-10.9,0-21.7,0.1-32.6c0.9,4.5,0.3,9,0.4,13.4c0.1,5.1,0.1,10.2,0,15.3
			c-0.1,2.2,0.6,2.7,2.7,2.6c4.1-0.2,8.1-0.2,12.2,0c2.4,0.1,2.9-0.8,2.8-3c-0.1-5.1,0-10.2-0.1-15.3c0-2,0.3-3,2.6-2.8
			c3.3,0.3,7.7-1,9.8,0.6s0.5,6.3,0.7,9.6c0.2,2.5,0.2,5.1,0,7.7c-0.3,2.8,0.9,3.2,3.3,3.2c7.6-0.2,15.3,0,23-0.1
			c2.3,0,3.2,0.4,3.2,3c-0.1,8,0,8-7.9,8c-6,0-12.1,0.1-18.1,0c-2.6-0.1-3.5,0.6-3.5,3.4c0.1,17.8,0.3,35.5,0,53.3
			c-0.4,18.2,14.2,20.9,25.9,16.6c1.9-0.7,3.4-3.4,5.3-2.2c1.4,0.9,1.6,3.5,2.8,5.1c2.2,2.9,0.8,4.5-1.8,5.8
			c-10.8,5.5-21.8,6.2-32.7,0.7c-9-4.5-12.3-13-12.5-22.5c-0.2-18.9-0.1-37.8,0-56.7c0-2.7-0.5-3.7-3.4-3.5c-3.8,0.3-7.7,0-11.5,0.1
			c-1.9,0.1-2.3-0.7-2.4-2.4C401.2,38.4,402.5,35.7,400.5,33.5z"/>
		<path class="st0" d="M514.8,75c0-9.5-0.1-19,0.1-28.6c0.1-2.9-0.9-3.5-3.5-3.4c-3.8,0.2-7.7,0-11.5,0.1c-1.8,0-2.4-0.5-2.4-2.4
			c-0.4-8.6-0.4-8.6,8.3-8.7c3,0,6.9,1.3,8.6-0.7c1.5-1.7,0.4-5.5,0.5-8.4c0-3.2,0.1-6.5,0-9.8c-0.1-1.7,0.5-2.2,2.2-2.1
			c2.9,0.1,5.8,0.1,8.7,0c1.9-0.1,2.4,0.6,2.3,2.4c-0.1,5,0.2,10-0.1,15c-0.2,3.3,1,3.8,3.9,3.7c7.5-0.2,15.1,0,22.6-0.1
			c2.1,0,2.8,0.5,2.8,2.7c0.1,8.3,0.2,8.3-8,8.3c-5.9,0-11.8,0.1-17.8-0.1c-2.6-0.1-3.5,0.5-3.5,3.4c0.1,17.7,0.1,35.3,0.1,53
			c0,6.7,0.7,13,7.3,16.5c7,3.7,14.2,2.8,20.9-1c2.4-1.4,3.3-1.3,4.1,1.2c0.2,0.5,0.4,1.1,0.7,1.6c2.8,5.6,2.8,5.8-2.8,8.3
			c-9.6,4.4-19.6,4.8-29.3,0.6c-9.9-4.4-13.7-13.1-14-23.4c-0.2-9.4,0-18.8,0-28.2L514.8,75z"/>
		<path class="st0" d="M251.9,0.1c11.9-0.2,21.6,9.3,21.8,21.2c0,0.1,0,0.1,0,0.2c-0.1,11.9-9.7,21.6-21.6,21.7
			c-11.9,0.1-21.6-9.5-21.7-21.4c0,0,0-0.1,0-0.1c-0.2-11.7,9.2-21.4,20.9-21.6C251.5,0.1,251.7,0.1,251.9,0.1z"/>
		<path class="st0" d="M170.4,0.1C182.3,0,192,9.6,192.1,21.5c0,0,0,0.1,0,0.1c0.1,11.7-9.8,21.6-21.7,21.6
			c-11.9,0-21.6-9.6-21.6-21.5c0,0,0-0.1,0-0.1c-0.1-11.7,9.3-21.4,21-21.5C170,0.1,170.2,0.1,170.4,0.1z"/>
		<path class="st0" d="M472.9,80c0-14.8,0-29.7,0-44.6c0-2.4,0.3-3.7,3.1-3.3c3.2,0.4,7.5-1.4,9.3,0.7c1.6,1.8,0.5,6,0.5,9.1
			c0,27.6,0,55.2,0.1,82.8c0,2.8-0.4,4.1-3.5,3.7s-7.2,1.3-9-0.7c-1.5-1.8-0.5-5.7-0.5-8.7C472.8,106,472.8,93,472.9,80z"/>
		<path class="st0" d="M479.8,0.1c5-0.1,9.1,3.9,9.2,8.8c0,0,0,0,0,0c0.1,5.1-4,9.4-9.2,9.5c-0.2,0-0.4,0-0.6,0
			c-5,0.1-9.1-3.9-9.2-8.9c0-0.2,0-0.4,0-0.6C470.1,3.6,474.1,0,479.8,0.1z"/>
	</g>
</g>
</svg>
