<svg xmlns="http://www.w3.org/2000/svg" viewBox="0 0 861.78 131.58"><defs><style>.cls-1{fill:#163762;}.cls-2{fill:#025176;}.cls-3{fill:#025276;}.cls-4{fill:#025277;}.cls-5{fill:#045175;}.cls-6{fill:#004762;}.cls-7{fill:#025177;}.cls-8{fill:#035276;}</style></defs><g id="Camada_2" data-name="Camada 2"><g id="Camada_1-2" data-name="Camada 1"><path class="cls-1" d="M153.19,125.48Q126.42,64.49,99.85,3.4C98.77.92,97.49.28,95,.3,83.12.44,71.27.5,59.44.26c-2.92-.05-4,1.12-5,3.46Q34,50.64,13.49,97.5C9.05,107.66,4.63,117.82,0,128.45c14.47,0,28.27,0,42.08.06,2.17,0,2.45-1.45,3-2.75,2.24-5.71,4.44-11.43,6.52-17.18.63-1.75,1.39-2.53,3.44-2.52q21.76.15,43.53,0c2.2,0,3,.86,3.69,2.72,2.05,5.65,4.33,11.21,6.36,16.86.72,2,1.63,2.9,3.94,2.87q19.32-.18,38.65,0C153.77,128.51,154.35,128.1,153.19,125.48Zm-66-50.34c-7,0-13.9,0-20.85,0-1.35,0-1.91-.3-1.31-1.82,3.91-10,7.74-20,11.78-30.38,4,10.39,7.78,20.3,11.67,30.18C89.13,74.67,88.93,75.15,87.23,75.14Z"/><path class="cls-1" d="M400.54,33.51c-1.37,1-2.92.44-4.37.45-9.75.06-19.5.13-29.25,0-2.71,0-3.45.68-3.44,3.42.1,29.14,0,58.27.14,87.41,0,3.12-.79,3.82-3.82,3.78q-17.93-.28-35.86,0c-2.84,0-3.68-.6-3.67-3.57.13-29,0-58,.16-87.06,0-3.24-.87-4-4-4-10.09.2-20.19,0-30.29.12-2.43,0-3.45-.38-3.38-3.18.2-9.16.17-18.34,0-27.5,0-2.54.82-3,3.17-3Q341.81.42,397.7.38c1,0,2.1-.48,2.91.55C401,11.79,401.15,22.65,400.54,33.51Z"/><path class="cls-1" d="M170.85,58.73c6.15,0,12.31.1,18.45,0,2.27-.06,2.91.58,2.92,2.87,0,7-.65,14.14,1.35,21.09,2.71,9.41,8.84,13.9,19.08,13.67,8.91-.21,15.22-5.65,17.25-14.7,1.46-6.53,1.4-13.14,1.24-19.75-.06-2.27.34-3.23,3-3.2,12.3.15,24.6.05,36.91.09,1.09,0,2.69-.7,2.71,1.55.15,12.31.17,24.63-4.36,36.36-6.89,17.87-20.18,28.59-38.59,32.6-15.59,3.41-31.33,3.37-46.56-2.19-20.07-7.32-31-22.19-34.43-42.95-1.27-7.61-.81-15.27-1-22.92-.05-2,.58-2.55,2.55-2.52C157.85,58.8,164.35,58.73,170.85,58.73Z"/><path class="cls-2" d="M760.27.94c-2-1.88-6-.29-9.07-.63-2.72-.3-3.28.8-3.26,3.32.13,11.62.06,23.23.07,34.84V50c-1.8-2.15-2.94-3.7-4.27-5.08-11.8-12.36-26.43-15.43-42.63-12.4C687.55,35,677,42.2,670.07,54.29c-5.73,9.91-7.19,20.6-6.24,31.85,3.2,37.75,43,52.66,70.32,37.54,5.66-3.14,10-7.67,14.31-13.79,0,3.88-.08,6.72,0,9.56s-1.26,6.57.53,8.4,5.52.25,8.36.63,3.62-.66,3.61-3.56c-.1-38.32,0-76.63-.1-114.95C760.89,6.88,762.26,2.85,760.27.94ZM710.89,117.78c-20.6-.75-34.35-16.35-34.2-37.85.16-22,15.08-37.18,36-37.05s35.51,15.75,35.41,38C748.05,101.36,734,118.62,710.89,117.78Z"/><path class="cls-2" d="M839.89,38.26c-16.13-9.75-33.15-9.59-49.43-.18-24.42,14.14-27.52,47.62-16,67.49,8.25,14.16,21,21.56,36.94,23.45,14,1.65,27.21-.9,38.66-9.78,6.36-4.93,6.33-5,1.12-10.87-.61-.7-1.26-1.36-1.82-2.1-.79-1-1.31-.75-2.13.07-10.06,10-22.29,12.88-36,10.87-15.71-2.31-28.07-14.82-29.83-30-.3-2.64.59-2.82,2.69-2.81,12.42.07,24.84,0,37.25,0h37.26c1.68,0,3.11.24,3.15-2.35C862.08,63.62,856.06,48.06,839.89,38.26Zm3,36.43H781.31a33.3,33.3,0,0,1,30.65-32c17-1.48,31.23,8.13,36.09,24.94C850.08,74.7,850.08,74.69,842.84,74.69Z"/><path class="cls-3" d="M643.67,112.42c-8.2,11.24-19.26,16.51-32.43,17-20.27.76-39.12-8.24-42.16-33a77.42,77.42,0,0,1-.59-9.37c0-17.3,0-34.59,0-51.89,0-2.16.39-3.18,2.81-3a41.5,41.5,0,0,0,7.31,0c2.46-.22,3.09.63,3.07,3.07-.11,16.71,0,33.43-.08,50.15a49.39,49.39,0,0,0,1.18,12.08c2.64,10.7,9.19,17.47,20.2,19.41,12.62,2.21,24,.12,32.8-10.12,5.1-6,7.19-13.24,7.3-20.91.23-16.71.19-33.44.05-50.15,0-3,.85-3.88,3.68-3.52,3.06.39,7.18-1.33,9,.74,1.51,1.76.5,5.74.5,8.74,0,27.75,0,55.5.08,83.24,0,2.91-.7,3.91-3.62,3.6s-6.61.85-8.39-.59-.46-5.43-.6-8.29C643.57,117.22,643.67,114.82,643.67,112.42Z"/><path class="cls-4" d="M400.54,33.51q0-16.29.07-32.58c.91,4.46.28,9,.38,13.44.12,5.1.14,10.22,0,15.32-.07,2.2.62,2.67,2.73,2.57a120.69,120.69,0,0,1,12.18,0c2.38.11,2.89-.75,2.82-2.95-.15-5.1,0-10.21-.08-15.31,0-2,.29-3,2.61-2.82,3.34.26,7.71-1,9.78.62s.53,6.31.69,9.63a51.53,51.53,0,0,1,0,7.66c-.29,2.77.85,3.21,3.32,3.17,7.65-.16,15.31,0,23-.11,2.3,0,3.21.39,3.18,3-.08,8,0,8-7.88,8-6,0-12.08.14-18.11,0-2.65-.09-3.52.56-3.49,3.39.14,17.75.34,35.52,0,53.27-.35,18.23,14.2,20.87,25.88,16.63,1.86-.68,3.38-3.38,5.3-2.16,1.43.89,1.64,3.51,2.79,5.07,2.17,2.92.84,4.49-1.77,5.83-10.78,5.52-21.83,6.2-32.66.73-9-4.54-12.34-13-12.46-22.53-.24-18.91-.13-37.83,0-56.74,0-2.65-.54-3.7-3.39-3.5-3.81.26-7.66,0-11.48.09-1.86.06-2.28-.66-2.43-2.41C401.2,38.36,402.54,35.71,400.54,33.51Z"/><path class="cls-5" d="M514.78,75c0-9.53-.12-19.05.08-28.57.06-2.87-.89-3.5-3.51-3.36-3.82.2-7.66,0-11.49.08-1.8.05-2.35-.53-2.42-2.36-.36-8.63-.42-8.57,8.26-8.66,3,0,6.91,1.33,8.61-.66,1.45-1.7.44-5.53.47-8.42,0-3.25.09-6.5,0-9.75-.06-1.68.51-2.22,2.17-2.15,2.9.12,5.81.13,8.71,0,1.87-.08,2.38.61,2.35,2.41-.1,5,.21,10-.13,15-.22,3.27,1,3.78,3.87,3.7,7.54-.2,15.1,0,22.64-.12,2.1,0,2.76.5,2.78,2.69.09,8.32.18,8.32-8,8.32-5.92,0-11.85.12-17.77-.06-2.62-.08-3.54.51-3.51,3.37.14,17.65.11,35.3.06,53,0,6.65.72,13,7.28,16.54,7,3.72,14.22,2.85,20.88-1,2.4-1.37,3.3-1.33,4.09,1.17a13.15,13.15,0,0,0,.71,1.58c2.76,5.62,2.83,5.76-2.8,8.34-9.64,4.42-19.6,4.84-29.28.57-9.93-4.39-13.69-13.08-13.95-23.4-.23-9.4,0-18.81,0-28.21Z"/><path class="cls-6" d="M251.89.12a21.51,21.51,0,0,1,21.8,21.4,21.81,21.81,0,0,1-21.6,21.7A21.55,21.55,0,0,1,230.42,21.7,21.23,21.23,0,0,1,251.89.12Z"/><path class="cls-4" d="M170.38.12A21.57,21.57,0,0,1,192.14,21.6c.07,11.74-9.78,21.55-21.71,21.62a21.53,21.53,0,0,1-21.6-21.59A21.25,21.25,0,0,1,170.38.12Z"/><path class="cls-7" d="M472.85,80c0-14.85,0-29.7-.05-44.56,0-2.43.32-3.67,3.14-3.3,3.18.42,7.48-1.35,9.31.73,1.58,1.78.49,6,.5,9.08,0,27.61,0,55.23.07,82.85,0,2.75-.44,4.09-3.52,3.66s-7.18,1.32-8.95-.73c-1.51-1.75-.49-5.74-.49-8.74Q472.83,99.51,472.85,80Z"/><path class="cls-8" d="M479.83.13A9,9,0,0,1,489,9a9.32,9.32,0,0,1-9.76,9.46A9.07,9.07,0,0,1,470,9C470.08,3.62,474.08,0,479.83.13Z"/></g></g></svg>