<svg xmlns="http://www.w3.org/2000/svg" viewBox="0 0 870.84 870.84"><defs><style>.cls-1{fill:none;stroke:#cecec8;stroke-miterlimit:10;stroke-width:37px;}.cls-2{font-size:121.75px;font-family:Arial-Black, Arial;font-weight:800;}.cls-2,.cls-4{fill:#cecec8;}.cls-3{letter-spacing:-0.02em;}</style></defs><g id="Camada_2" data-name="Camada 2"><g id="Camada_1-2" data-name="Camada 1"><rect class="cls-1" x="18.5" y="18.5" width="833.84" height="833.84" rx="59.66"/><text class="cls-2" transform="translate(90.09 794.25)">NO-IM<tspan class="cls-3" x="405.67" y="0">A</tspan><tspan x="498.17" y="0">GE</tspan></text><g id="Camada_2-2" data-name="Camada 2"><g id="Camada_1-2-2" data-name="Camada 1-2"><path class="cls-4" d="M365,591.2H214.12c0-1.65-.26-3.29-.26-4.61,0-17.45-.43-34.93.3-52.35,1.9-45.64,12.84-88.44,41.45-125.32a181.63,181.63,0,0,1,83-59.63c34.14-12.51,69.6-16,105.72-15.31A280.27,280.27,0,0,1,511,342.71c61.74,16.46,106.62,52.68,130.46,112.9a228.91,228.91,0,0,1,15.21,79.65c.46,17.32.23,34.64.46,52,0,3.29-1,4.28-4.28,4.28H507.46a19.15,19.15,0,0,1-3.72-.27c0-2-.3-3.91-.33-5.82-.39-18.15-.33-36.22-1.28-54.4a95.93,95.93,0,0,0-11.43-42,56.46,56.46,0,0,0-41.55-29.24,73.64,73.64,0,0,0-48,6c-17.35,8.89-26.34,24.26-31.08,42.5a172.16,172.16,0,0,0-5,44.35C365,565.29,365,578,365,591.2Z"/><path class="cls-4" d="M580.27,125A76.32,76.32,0,0,1,657,201v.43c.4,41.88-33.78,77.14-75,77.31-43.83.2-78.5-33.42-78.7-76.23A76.63,76.63,0,0,1,579,125Z"/><path class="cls-4" d="M367.2,201.93A76.74,76.74,0,1,1,290.25,125C332.56,125,368.22,160.27,367.2,201.93Z"/></g></g></g></g></svg>